<?xml version="1.0" encoding="UTF-8"?>
<svg width="256" height="256" viewBox="0 0 256 256" fill="none" xmlns="http://www.w3.org/2000/svg" role="img" aria-label="Kamchatour Hub Bear Wave Mark">
  <defs>
    <linearGradient id="grad" x1="0" y1="0" x2="1" y2="1">
      <stop offset="0%" stop-color="#4A90E2"/>
      <stop offset="100%" stop-color="#2B6CB0"/>
    </linearGradient>
    <filter id="soft" x="-20%" y="-20%" width="140%" height="140%" filterUnits="objectBoundingBox">
      <feGaussianBlur in="SourceGraphic" stdDeviation="0.5"/>
    </filter>
  </defs>

  <!-- Map-pin silhouette (travel) -->
  <path d="M128 16c-44.183 0-80 35.817-80 80 0 54.5 63.2 118.8 76.7 132.3 1.8 1.8 4.8 1.8 6.6 0C144.8 214.8 208 150.5 208 96c0-44.183-35.817-80-80-80Z" fill="url(#grad)"/>

  <!-- Bear ear (minimal, circle) -->
  <circle cx="94" cy="72" r="10" fill="#FFFFFF" fill-opacity="0.9" filter="url(#soft)"/>

  <!-- Bear profile + wave forms the letter K (abstract monoline) -->
  <path d="M84 106c18-16 34-24 50-24 17 0 26 10 26 22 0 8-4 14-10 18-8 5-18 7-28 9-10 2-20 4-28 9-6 4-10 10-10 18 0 12 10 22 26 22 16 0 32-8 50-24" stroke="#FFFFFF" stroke-width="10" stroke-linecap="round" stroke-linejoin="round"/>

  <!-- Inner cut to suggest snout/negative space (small arc) -->
  <path d="M152 98c6 4 10 8 10 14" stroke="#FFFFFF" stroke-opacity="0.7" stroke-width="6" stroke-linecap="round"/>

</svg>

