<svg xmlns="http://www.w3.org/2000/svg" style="display:none">
  <symbol id="list" viewBox="0 0 24 24" fill="none" stroke="currentColor" stroke-width="2" stroke-linecap="round" stroke-linejoin="round">
    <path d="M3 5h18M3 12h18M3 19h18"/>
  </symbol>
  <symbol id="map" viewBox="0 0 24 24" fill="none" stroke="currentColor" stroke-width="2" stroke-linecap="round" stroke-linejoin="round">
    <path d="M3 6l6-3 6 3 6-3v15l-6 3-6-3-6 3z"/>
    <path d="M9 3v15M15 6v15"/>
  </symbol>
  <symbol id="story" viewBox="0 0 24 24" fill="none" stroke="currentColor" stroke-width="2" stroke-linecap="round" stroke-linejoin="round">
    <path d="M4 19.5A2.5 2.5 0 0 1 6.5 17H20"/>
    <path d="M4 4v16"/>
    <path d="M20 22V6H6.5A2.5 2.5 0 0 0 4 8.5"/>
  </symbol>
  <symbol id="events" viewBox="0 0 24 24" fill="none" stroke="currentColor" stroke-width="2" stroke-linecap="round" stroke-linejoin="round">
    <rect x="3" y="4" width="18" height="18" rx="2"/>
    <path d="M16 2v4M8 2v4M3 10h18"/>
  </symbol>
  <symbol id="account" viewBox="0 0 24 24" fill="none" stroke="currentColor" stroke-width="2" stroke-linecap="round" stroke-linejoin="round">
    <circle cx="12" cy="8" r="4"/>
    <path d="M6 20c0-3.3137 2.6863-6 6-6s6 2.6863 6 6"/>
  </symbol>
  <symbol id="volcano" viewBox="0 0 24 24" fill="none" stroke="currentColor" stroke-width="2" stroke-linecap="round" stroke-linejoin="round">
    <path d="M3 20l6-10 3 4 3-4 6 10z"/>
  </symbol>
  <symbol id="geyser" viewBox="0 0 24 24" fill="none" stroke="currentColor" stroke-width="2" stroke-linecap="round" stroke-linejoin="round">
    <path d="M12 22v-6M12 2v4M5 12h14"/>
    <path d="M7 12c0-3 2-5 5-5s5 2 5 5"/>
  </symbol>
  <symbol id="hiking" viewBox="0 0 24 24" fill="none" stroke="currentColor" stroke-width="2" stroke-linecap="round" stroke-linejoin="round">
    <circle cx="9" cy="4" r="2"/>
    <path d="M6 22l2-7 4-3 2 3 2 7"/>
  </symbol>
  <symbol id="bear" viewBox="0 0 24 24" fill="none" stroke="currentColor" stroke-width="2" stroke-linecap="round" stroke-linejoin="round">
    <circle cx="7" cy="7" r="3"/>
    <circle cx="17" cy="7" r="3"/>
    <path d="M3 16c2-3 5-5 9-5s7 2 9 5"/>
  </symbol>
  <symbol id="fishing" viewBox="0 0 24 24" fill="none" stroke="currentColor" stroke-width="2" stroke-linecap="round" stroke-linejoin="round">
    <path d="M22 12s-3 5-10 5S2 12 2 12"/>
    <path d="M11 12l-1-7 3 3-5 4"/>
  </symbol>
  <symbol id="sea" viewBox="0 0 24 24" fill="none" stroke="currentColor" stroke-width="2" stroke-linecap="round" stroke-linejoin="round">
    <path d="M2 17c2 0 2-2 4-2s2 2 4 2 2-2 4-2 2 2 4 2 2-2 4-2"/>
  </symbol>
  <symbol id="whale" viewBox="0 0 24 24" fill="none" stroke="currentColor" stroke-width="2" stroke-linecap="round" stroke-linejoin="round">
    <path d="M2 12c4 0 6-3 10-3s6 3 10 3c-1 3-4 6-8 6-5 0-9-3-12-6z"/>
    <circle cx="8" cy="11" r="1"/>
  </symbol>
  <symbol id="helicopter" viewBox="0 0 24 24" fill="none" stroke="currentColor" stroke-width="2" stroke-linecap="round" stroke-linejoin="round">
    <path d="M3 7h18"/>
    <path d="M4 10h6l6 3h4"/>
    <circle cx="6" cy="15" r="2"/>
    <circle cx="18" cy="15" r="2"/>
  </symbol>
  <symbol id="snowmobile" viewBox="0 0 24 24" fill="none" stroke="currentColor" stroke-width="2" stroke-linecap="round" stroke-linejoin="round">
    <path d="M3 18h6l4-4 4 2 4 2"/>
    <path d="M5 18l-3 2"/>
  </symbol>
  <symbol id="dogsled" viewBox="0 0 24 24" fill="none" stroke="currentColor" stroke-width="2" stroke-linecap="round" stroke-linejoin="round">
    <path d="M2 16l6 2 6-2 4 2"/>
    <path d="M4 14l2-3 3 2 2-2"/>
  </symbol>
  <symbol id="rafting" viewBox="0 0 24 24" fill="none" stroke="currentColor" stroke-width="2" stroke-linecap="round" stroke-linejoin="round">
    <path d="M2 15c2 0 2-2 4-2s2 2 4 2 2-2 4-2 2 2 4 2 2-2 4-2"/>
    <path d="M6 12l2-3m8 3l-2-3"/>
  </symbol>
  <symbol id="surf" viewBox="0 0 24 24" fill="none" stroke="currentColor" stroke-width="2" stroke-linecap="round" stroke-linejoin="round">
    <path d="M3 18c3 0 3-2 6-2s3 2 6 2 3-2 6-2"/>
    <path d="M10 6c2 2 2 4 0 6"/>
  </symbol>
  <symbol id="hot" viewBox="0 0 24 24" fill="none" stroke="currentColor" stroke-width="2" stroke-linecap="round" stroke-linejoin="round">
    <path d="M6 18h12"/>
    <path d="M8 14c0-2 2-3 4-3s4 1 4 3"/>
    <path d="M10 10c-1-1-1-3 0-4"/>
  </symbol>
  <symbol id="kayak" viewBox="0 0 24 24" fill="none" stroke="currentColor" stroke-width="2" stroke-linecap="round" stroke-linejoin="round">
    <path d="M2 12l10-6 10 6-10 6z"/>
    <path d="M12 6v12"/>
  </symbol>
  <symbol id="ethno" viewBox="0 0 24 24" fill="none" stroke="currentColor" stroke-width="2" stroke-linecap="round" stroke-linejoin="round">
    <path d="M12 2l3 7h7l-5.5 4 2.5 7-7-4-7 4 2.5-7L2 9h7z"/>
  </symbol>
  <symbol id="photo" viewBox="0 0 24 24" fill="none" stroke="currentColor" stroke-width="2" stroke-linecap="round" stroke-linejoin="round">
    <rect x="3" y="5" width="18" height="14" rx="2"/>
    <circle cx="12" cy="12" r="3"/>
  </symbol>
  <symbol id="offroad" viewBox="0 0 24 24" fill="none" stroke="currentColor" stroke-width="2" stroke-linecap="round" stroke-linejoin="round">
    <rect x="3" y="8" width="18" height="7" rx="2"/>
    <circle cx="7" cy="18" r="2"/>
    <circle cx="17" cy="18" r="2"/>
  </symbol>
</svg>
